<?xml version="1.0" standalone="no"?>
<!DOCTYPE svg PUBLIC "-//W3C//DTD SVG 20010904//EN"
 "http://www.w3.org/TR/2001/REC-SVG-20010904/DTD/svg10.dtd">
<svg version="1.0" xmlns="http://www.w3.org/2000/svg"
 width="1084.000000pt" height="1084.000000pt" viewBox="0 0 1084.000000 1084.000000"
 preserveAspectRatio="xMidYMid meet">
<metadata>
Created by potrace 1.14, written by Peter Selinger 2001-2017
</metadata>
<g transform="translate(0.000000,1084.000000) scale(0.100000,-0.100000)"
fill="#000000" stroke="none">
<path d="M5119 10836 c-2 -2 -53 -7 -114 -10 -60 -4 -119 -9 -130 -11 -11 -2
-49 -7 -85 -10 -36 -3 -92 -10 -125 -15 -33 -5 -78 -12 -100 -15 -255 -38
-551 -110 -830 -200 -641 -209 -1254 -547 -1776 -980 -245 -203 -514 -472
-697 -695 -20 -25 -45 -54 -55 -65 -79 -86 -338 -457 -444 -635 -100 -168
-224 -407 -313 -605 -62 -137 -173 -441 -229 -630 -44 -148 -114 -443 -136
-570 -2 -16 -7 -41 -9 -55 -3 -14 -8 -43 -11 -65 -19 -133 -25 -179 -30 -226
-4 -30 -8 -68 -10 -84 -14 -106 -20 -270 -20 -555 0 -289 5 -397 20 -520 2
-19 7 -62 10 -95 3 -33 8 -71 10 -85 2 -14 7 -43 10 -65 6 -51 16 -114 21
-140 3 -11 7 -35 10 -54 7 -41 12 -68 19 -101 3 -14 7 -34 9 -45 4 -16 32
-137 51 -217 54 -229 171 -571 282 -825 54 -125 196 -410 247 -498 19 -33 46
-80 60 -105 26 -47 134 -213 225 -346 188 -276 547 -682 796 -902 33 -30 74
-66 90 -81 55 -50 239 -197 335 -268 344 -252 674 -442 1055 -608 61 -26 124
-53 140 -61 166 -75 676 -231 875 -267 14 -3 36 -8 50 -11 14 -3 39 -8 55 -11
17 -3 82 -14 145 -25 63 -11 135 -22 160 -25 25 -3 65 -8 90 -11 25 -3 61 -7
80 -9 19 -2 64 -6 100 -9 155 -15 219 -17 455 -17 243 0 363 4 475 16 30 3 78
7 105 10 62 5 132 14 165 20 14 2 45 7 70 10 75 10 101 14 240 41 538 103
1154 329 1615 596 50 28 99 56 110 63 101 57 341 217 469 313 85 63 248 193
266 212 3 3 39 34 80 69 77 67 395 381 465 461 71 81 140 163 154 183 8 12 22
29 30 38 75 84 295 396 390 554 24 39 47 77 52 85 125 202 318 613 423 904 53
145 144 449 171 566 54 238 92 450 110 615 3 28 7 66 10 85 4 38 13 137 20
240 6 79 6 607 1 670 -2 25 -7 81 -11 125 -3 44 -8 96 -10 115 -18 151 -22
183 -41 305 -9 60 -75 381 -86 420 -6 22 -12 45 -13 50 -11 52 -75 264 -111
369 -25 72 -46 136 -48 141 -4 16 -46 128 -61 160 -8 17 -26 59 -40 95 -118
286 -355 721 -516 945 -76 106 -213 291 -218 295 -3 3 -24 28 -46 55 -196 248
-513 567 -770 775 -44 36 -82 67 -85 70 -34 38 -411 298 -560 387 -193 116
-495 270 -670 342 -58 24 -118 49 -135 56 -256 109 -755 248 -1080 300 -55 9
-110 18 -121 20 -12 2 -48 7 -80 10 -33 4 -66 9 -75 10 -8 2 -55 6 -105 10
-49 4 -98 10 -109 12 -23 6 -710 14 -716 9z"/>
</g>
</svg>
